<?xml version="1.0" encoding="UTF-8" standalone="no"?>
<!DOCTYPE svg PUBLIC "-//W3C//DTD SVG 1.1//EN" "http://www.w3.org/Graphics/SVG/1.1/DTD/svg11.dtd">
<svg width="auto" height="30px" viewBox="0 0 1958 116" version="1.1" xmlns="http://www.w3.org/2000/svg" xmlns:xlink="http://www.w3.org/1999/xlink" xml:space="preserve" xmlns:serif="http://www.serif.com/" style="fill-rule:evenodd;clip-rule:evenodd;stroke-linejoin:round;stroke-miterlimit:2">
    <g>
        <path d="M42.117,112.861C42.117,113.719 41.783,114.478 41.117,115.144C40.446,115.803 39.683,116.136 38.821,116.136C37.958,116.136 37.204,115.811 36.55,115.161L7.433,86.086C6.904,85.582 6.579,85.019 6.454,84.39L6.454,112.886C6.454,115.057 5.379,116.136 3.225,116.136C1.075,116.136 0,115.057 0,112.882L0,54.657C0,52.486 1.075,51.403 3.225,51.403C5.379,51.403 6.454,52.49 6.454,54.657L6.454,83.19C6.579,82.569 6.904,82.007 7.433,81.503L36.55,52.382C37.204,51.728 37.958,51.403 38.821,51.403C39.683,51.403 40.446,51.736 41.117,52.407C41.783,53.078 42.117,53.84 42.117,54.703C42.117,55.536 41.792,56.294 41.146,56.978L14.333,83.79L41.146,110.603C41.792,111.286 42.117,112.036 42.117,112.861Z" style="fill:rgb(79,79,81);fill-rule:nonzero;"/>
        <path d="M110.279,112.886C110.279,115.057 109.208,116.136 107.075,116.136L74.708,116.136C73.846,116.136 73.088,115.811 72.438,115.157C71.783,114.503 71.454,113.744 71.454,112.882L71.454,54.657C71.454,53.794 71.783,53.036 72.438,52.382C73.088,51.728 73.846,51.403 74.708,51.403L107.075,51.403C109.208,51.403 110.279,52.486 110.279,54.653C110.279,56.79 109.208,57.857 107.071,57.857L77.912,57.857L77.912,80.565L100.567,80.565C102.737,80.565 103.825,81.632 103.825,83.773C103.825,85.936 102.737,87.019 100.567,87.019L77.912,87.019L77.912,109.686L107.071,109.686C109.208,109.686 110.279,110.753 110.279,112.886Z" style="fill:rgb(79,79,81);fill-rule:nonzero;"/>
        <path d="M180.579,54.653C180.579,56.79 179.496,57.857 177.329,57.857L161.167,57.857L161.167,112.882C161.167,115.057 160.092,116.136 157.937,116.136C155.787,116.136 154.713,115.057 154.713,112.882L154.713,57.857L138.55,57.857C136.383,57.857 135.3,56.79 135.3,54.653C135.3,52.486 136.379,51.403 138.546,51.403L177.333,51.403C179.496,51.403 180.579,52.486 180.579,54.653Z" style="fill:rgb(79,79,81);fill-rule:nonzero;"/>
        <path d="M248.742,54.653C248.742,56.79 247.658,57.857 245.492,57.857L229.329,57.857L229.329,112.882C229.329,115.057 228.254,116.136 226.1,116.136C223.95,116.136 222.875,115.057 222.875,112.882L222.875,57.857L206.713,57.857C204.546,57.857 203.463,56.79 203.463,54.653C203.463,52.486 204.542,51.403 206.708,51.403L245.492,51.403C247.658,51.403 248.742,52.486 248.742,54.653Z" style="fill:rgb(79,79,81);fill-rule:nonzero;"/>
        <path d="M319.083,93.461C319.083,99.728 316.871,105.073 312.45,109.498C308.029,113.923 302.687,116.136 296.425,116.136C290.192,116.136 284.862,113.923 280.438,109.498C276.017,105.073 273.804,99.728 273.804,93.461L273.804,54.657C273.804,52.486 274.887,51.403 277.054,51.403C279.192,51.403 280.263,52.486 280.263,54.657L280.263,93.465C280.263,97.915 281.85,101.736 285.025,104.915C288.2,108.094 292,109.686 296.425,109.686C300.875,109.686 304.688,108.094 307.867,104.915C311.042,101.736 312.629,97.915 312.629,93.465L312.629,54.657C312.629,52.486 313.696,51.403 315.833,51.403C318,51.403 319.083,52.486 319.083,54.657L319.083,93.461Z" style="fill:rgb(79,79,81);fill-rule:nonzero;"/>
        <path d="M428.767,96.728C428.767,93.165 427.492,90.111 424.95,87.578C422.408,85.04 419.354,83.773 415.783,83.773L402.85,83.773L402.85,109.686L415.783,109.686C419.354,109.686 422.408,108.415 424.95,105.878C427.492,103.336 428.767,100.286 428.767,96.728ZM425.558,67.586C425.558,64.911 424.604,62.619 422.7,60.715C420.792,58.811 418.496,57.857 415.812,57.857L402.85,57.857L402.85,77.311L415.812,77.311C418.496,77.311 420.792,76.365 422.7,74.461C424.604,72.557 425.558,70.265 425.558,67.586ZM435.221,96.711C435.221,102.09 433.321,106.673 429.521,110.457C425.721,114.244 421.15,116.136 415.804,116.136L399.646,116.136C398.783,116.136 398.025,115.811 397.375,115.157C396.721,114.503 396.396,113.744 396.396,112.882L396.396,54.657C396.396,53.794 396.721,53.036 397.375,52.382C398.025,51.728 398.783,51.403 399.646,51.403L415.804,51.403C420.262,51.403 424.075,52.986 427.25,56.148C430.425,59.311 432.017,63.119 432.017,67.573C432.017,72.715 429.996,76.915 425.958,80.186C432.133,83.986 435.221,89.494 435.221,96.711Z" style="fill:rgb(247,147,29);fill-rule:nonzero;"/>
        <path d="M471.058,112.882C471.058,115.057 469.983,116.136 467.833,116.136C465.679,116.136 464.604,115.057 464.604,112.882L464.604,54.657C464.604,52.486 465.679,51.403 467.833,51.403C469.983,51.403 471.058,52.486 471.058,54.657L471.058,112.882Z" style="fill:rgb(247,147,29);fill-rule:nonzero;"/>
        <path d="M537.079,96.728C537.079,102.069 535.183,106.64 531.383,110.44C527.588,114.24 523.013,116.136 517.671,116.136C514.288,116.136 511.054,115.265 507.967,113.511C504.788,111.732 502.417,109.369 500.842,106.428C500.517,105.811 500.35,105.244 500.35,104.74C500.35,103.848 500.7,103.094 501.4,102.469C502.096,101.848 502.892,101.536 503.779,101.536C504.7,101.536 505.592,102.082 506.45,103.182C506.779,103.686 507.296,104.411 508.008,105.365C510.504,108.244 513.725,109.686 517.671,109.686C521.233,109.686 524.283,108.415 526.821,105.878C529.358,103.336 530.629,100.286 530.629,96.728C530.629,93.165 529.358,90.111 526.821,87.578C524.283,85.04 521.233,83.773 517.671,83.773C513.221,83.773 509.413,82.186 506.25,79.019C503.092,75.857 501.508,72.044 501.508,67.586C501.508,63.128 503.092,59.315 506.25,56.153C509.413,52.986 513.221,51.403 517.671,51.403C520.492,51.403 523.2,52.132 525.796,53.59C528.392,55.053 530.346,57.003 531.654,59.444C531.979,60.069 532.142,60.653 532.142,61.186C532.142,62.053 531.8,62.794 531.117,63.419C530.433,64.048 529.65,64.357 528.758,64.357C528.046,64.357 526.696,63.273 524.708,61.107C522.717,58.94 520.375,57.857 517.671,57.857C515,57.857 512.717,58.811 510.817,60.715C508.917,62.619 507.967,64.911 507.967,67.586C507.967,70.265 508.917,72.557 510.817,74.461C512.717,76.365 515,77.311 517.671,77.311C523.013,77.311 527.588,79.215 531.383,83.015C535.183,86.815 537.079,91.382 537.079,96.728Z" style="fill:rgb(247,147,29);fill-rule:nonzero;"/>
        <path d="M618.204,112.84C618.204,115.04 617.1,116.136 614.9,116.136C613.887,116.136 612.933,115.578 612.042,114.461L572.879,64.053L572.879,112.882C572.879,115.057 571.8,116.136 569.65,116.136C567.5,116.136 566.421,115.057 566.421,112.886L566.421,54.698C566.421,52.503 567.521,51.403 569.717,51.403C570.725,51.403 571.675,51.982 572.567,53.14L611.746,103.494L611.746,54.657C611.746,52.486 612.817,51.403 614.95,51.403C617.117,51.403 618.204,52.486 618.204,54.653L618.204,112.84Z" style="fill:rgb(247,147,29);fill-rule:nonzero;"/>
        <path d="M658.317,112.882C658.317,115.057 657.242,116.136 655.092,116.136C652.938,116.136 651.863,115.057 651.863,112.882L651.863,54.657C651.863,52.486 652.938,51.403 655.092,51.403C657.242,51.403 658.317,52.486 658.317,54.657L658.317,112.882Z" style="fill:rgb(247,147,29);fill-rule:nonzero;"/>
        <path d="M724.342,96.728C724.342,102.069 722.442,106.64 718.642,110.44C714.846,114.24 710.271,116.136 704.929,116.136C701.546,116.136 698.313,115.265 695.225,113.511C692.046,111.732 689.671,109.369 688.1,106.428C687.771,105.811 687.608,105.244 687.608,104.74C687.608,103.848 687.958,103.094 688.658,102.469C689.354,101.848 690.15,101.536 691.037,101.536C691.958,101.536 692.85,102.082 693.708,103.182C694.038,103.686 694.554,104.411 695.267,105.365C697.762,108.244 700.983,109.686 704.929,109.686C708.492,109.686 711.542,108.415 714.079,105.878C716.617,103.336 717.883,100.286 717.883,96.728C717.883,93.165 716.617,90.111 714.079,87.578C711.542,85.04 708.492,83.773 704.929,83.773C700.479,83.773 696.671,82.186 693.508,79.019C690.35,75.857 688.767,72.044 688.767,67.586C688.767,63.128 690.35,59.315 693.508,56.153C696.671,52.986 700.479,51.403 704.929,51.403C707.75,51.403 710.458,52.132 713.054,53.59C715.65,55.053 717.604,57.003 718.913,59.444C719.238,60.069 719.4,60.653 719.4,61.186C719.4,62.053 719.058,62.794 718.375,63.419C717.692,64.048 716.908,64.357 716.017,64.357C715.304,64.357 713.954,63.273 711.967,61.107C709.975,58.94 707.633,57.857 704.929,57.857C702.258,57.857 699.975,58.811 698.075,60.715C696.175,62.619 695.225,64.911 695.225,67.586C695.225,70.265 696.175,72.557 698.075,74.461C699.975,76.365 702.258,77.311 704.929,77.311C710.271,77.311 714.846,79.215 718.642,83.015C722.442,86.815 724.342,91.382 724.342,96.728Z" style="fill:rgb(247,147,29);fill-rule:nonzero;"/>
        <path d="M802.387,87.019C802.387,84.886 803.458,83.815 805.6,83.815L815.321,83.815C818.888,83.815 821.946,82.553 824.483,80.019C827.025,77.486 828.3,74.432 828.3,70.857C828.3,67.286 827.025,64.228 824.483,61.678C821.946,59.132 818.888,57.857 815.321,57.857L802.387,57.857L802.387,87.019ZM795.929,112.882L795.929,54.657C795.929,53.794 796.258,53.036 796.913,52.382C797.562,51.728 798.321,51.403 799.183,51.403L815.342,51.403C820.717,51.403 825.292,53.298 829.079,57.086C832.862,60.873 834.754,65.457 834.754,70.836C834.754,76.19 832.858,80.761 829.071,84.561C825.279,88.369 820.696,90.269 815.317,90.269L805.596,90.269C803.458,90.269 802.387,89.186 802.387,87.019L802.387,112.886C802.387,115.057 801.308,116.136 799.158,116.136C797.008,116.136 795.929,115.057 795.929,112.882Z" style="fill:rgb(247,147,29);fill-rule:nonzero;"/>
        <path d="M896.463,70.857C896.463,67.286 895.188,64.228 892.646,61.678C890.104,59.132 887.05,57.857 883.483,57.857L870.55,57.857L870.55,86.486C870.846,84.707 872.125,83.815 874.383,83.815L883.483,83.815C887.05,83.815 890.104,82.553 892.646,80.019C895.188,77.486 896.463,74.432 896.463,70.857ZM902.917,112.861C902.917,113.719 902.588,114.478 901.921,115.144C901.258,115.803 900.504,116.136 899.65,116.136C898.825,116.136 898.075,115.811 897.396,115.161L871.971,89.74C871.146,88.965 870.671,88.265 870.55,87.644L870.55,112.886C870.55,115.057 869.471,116.136 867.321,116.136C865.171,116.136 864.092,115.057 864.092,112.882L864.092,54.611C864.092,52.473 865.163,51.403 867.3,51.403L883.504,51.403C888.879,51.403 893.454,53.303 897.238,57.111C901.025,60.911 902.917,65.49 902.917,70.836C902.917,76.19 901.029,80.761 897.246,84.561C893.471,88.369 888.896,90.269 883.529,90.269L881.662,90.244L901.996,110.603C902.608,111.286 902.917,112.036 902.917,112.861Z" style="fill:rgb(247,147,29);fill-rule:nonzero;"/>
        <path d="M986.263,83.748C986.263,76.619 983.725,70.523 978.654,65.457C973.587,60.39 967.483,57.857 960.35,57.857C953.212,57.857 947.108,60.39 942.042,65.457C936.975,70.523 934.437,76.619 934.437,83.748C934.437,90.911 936.975,97.023 942.042,102.082C947.108,107.148 953.212,109.686 960.35,109.686C967.483,109.686 973.587,107.148 978.654,102.082C983.725,97.023 986.263,90.911 986.263,83.748ZM992.717,83.748C992.717,92.69 989.55,100.323 983.212,106.648C976.875,112.973 969.254,116.136 960.35,116.136C951.446,116.136 943.825,112.973 937.487,106.648C931.15,100.323 927.979,92.69 927.979,83.748C927.979,74.836 931.15,67.219 937.487,60.894C943.825,54.565 951.446,51.403 960.35,51.403C969.254,51.403 976.875,54.565 983.212,60.894C989.55,67.219 992.717,74.836 992.717,83.748Z" style="fill:rgb(247,147,29);fill-rule:nonzero;"/>
        <path d="M1070.54,83.748C1070.54,76.619 1068,70.523 1062.95,65.457C1057.88,60.39 1051.78,57.857 1044.65,57.857L1028.47,57.857L1028.47,109.686L1044.65,109.686C1051.78,109.686 1057.88,107.148 1062.95,102.082C1068,97.023 1070.54,90.911 1070.54,83.748ZM1077,83.748C1077,92.69 1073.84,100.323 1067.51,106.648C1061.19,112.973 1053.58,116.136 1044.68,116.136L1025.26,116.136C1024.4,116.136 1023.65,115.811 1022.99,115.157C1022.34,114.503 1022.01,113.744 1022.01,112.882L1022.01,54.657C1022.01,53.794 1022.34,53.036 1022.99,52.382C1023.65,51.728 1024.4,51.403 1025.26,51.403L1044.68,51.403C1053.58,51.403 1061.19,54.565 1067.51,60.894C1073.84,67.219 1077,74.836 1077,83.748Z" style="fill:rgb(247,147,29);fill-rule:nonzero;"/>
        <path d="M1149.48,93.461C1149.48,99.728 1147.27,105.073 1142.85,109.498C1138.42,113.923 1133.08,116.136 1126.82,116.136C1120.58,116.136 1115.26,113.923 1110.83,109.498C1106.41,105.073 1104.2,99.728 1104.2,93.461L1104.2,54.657C1104.2,52.486 1105.28,51.403 1107.45,51.403C1109.59,51.403 1110.65,52.486 1110.65,54.657L1110.65,93.465C1110.65,97.915 1112.24,101.736 1115.42,104.915C1118.6,108.094 1122.4,109.686 1126.82,109.686C1131.27,109.686 1135.08,108.094 1138.26,104.915C1141.43,101.736 1143.03,97.915 1143.03,93.465L1143.03,54.657C1143.03,52.486 1144.09,51.403 1146.23,51.403C1148.4,51.403 1149.48,52.486 1149.48,54.657L1149.48,93.461Z" style="fill:rgb(247,147,29);fill-rule:nonzero;"/>
        <path d="M1232.87,104.428C1232.87,105.144 1232.53,105.886 1231.85,106.657C1229.35,109.561 1225.88,111.907 1221.43,113.69C1217.25,115.323 1213.1,116.136 1209.01,116.136C1200.08,116.136 1192.45,112.973 1186.12,106.648C1179.8,100.323 1176.64,92.69 1176.64,83.748C1176.64,74.836 1179.81,67.219 1186.14,60.894C1192.48,54.565 1200.1,51.403 1209.01,51.403C1213.1,51.403 1217.25,52.223 1221.43,53.857C1225.88,55.644 1229.35,57.982 1231.85,60.869C1232.53,61.673 1232.87,62.432 1232.87,63.148C1232.87,64.04 1232.54,64.823 1231.87,65.49C1231.2,66.161 1230.42,66.494 1229.53,66.494C1228.84,66.494 1228.1,66.153 1227.3,65.465C1226.65,64.869 1225.63,64.003 1224.27,62.869C1219.9,59.532 1214.81,57.857 1208.98,57.857C1201.85,57.857 1195.76,60.39 1190.69,65.457C1185.63,70.523 1183.1,76.619 1183.1,83.748C1183.1,90.911 1185.63,97.023 1190.69,102.082C1195.76,107.148 1201.85,109.686 1208.98,109.686C1214.81,109.686 1219.9,108.019 1224.27,104.694C1224.92,104.103 1225.94,103.24 1227.3,102.115C1228.1,101.432 1228.84,101.09 1229.53,101.09C1230.42,101.09 1231.2,101.423 1231.87,102.09C1232.54,102.761 1232.87,103.54 1232.87,104.428Z" style="fill:rgb(247,147,29);fill-rule:nonzero;"/>
        <path d="M1303.17,54.653C1303.17,56.79 1302.08,57.857 1299.92,57.857L1283.76,57.857L1283.76,112.882C1283.76,115.057 1282.68,116.136 1280.53,116.136C1278.38,116.136 1277.3,115.057 1277.3,112.882L1277.3,57.857L1261.14,57.857C1258.97,57.857 1257.89,56.79 1257.89,54.653C1257.89,52.486 1258.97,51.403 1261.13,51.403L1299.92,51.403C1302.08,51.403 1303.17,52.486 1303.17,54.653Z" style="fill:rgb(247,147,29);fill-rule:nonzero;"/>
        <path d="M1336.88,112.882C1336.88,115.057 1335.8,116.136 1333.64,116.136C1331.5,116.136 1330.42,115.057 1330.42,112.882L1330.42,54.657C1330.42,52.486 1331.5,51.403 1333.64,51.403C1335.8,51.403 1336.88,52.486 1336.88,54.657L1336.88,112.882Z" style="fill:rgb(247,147,29);fill-rule:nonzero;"/>
        <path d="M1424.45,83.748C1424.45,76.619 1421.91,70.523 1416.84,65.457C1411.77,60.39 1405.66,57.857 1398.53,57.857C1391.4,57.857 1385.3,60.39 1380.23,65.457C1375.15,70.523 1372.62,76.619 1372.62,83.748C1372.62,90.911 1375.15,97.023 1380.23,102.082C1385.3,107.148 1391.4,109.686 1398.53,109.686C1405.66,109.686 1411.77,107.148 1416.84,102.082C1421.91,97.023 1424.45,90.911 1424.45,83.748ZM1430.9,83.748C1430.9,92.69 1427.73,100.323 1421.4,106.648C1415.05,112.973 1407.44,116.136 1398.53,116.136C1389.63,116.136 1382.01,112.973 1375.67,106.648C1369.34,100.323 1366.16,92.69 1366.16,83.748C1366.16,74.836 1369.34,67.219 1375.67,60.894C1382.01,54.565 1389.63,51.403 1398.53,51.403C1407.44,51.403 1415.05,54.565 1421.4,60.894C1427.73,67.219 1430.9,74.836 1430.9,83.748Z" style="fill:rgb(247,147,29);fill-rule:nonzero;"/>
        <path d="M1511.98,112.84C1511.98,115.04 1510.87,116.136 1508.67,116.136C1507.66,116.136 1506.7,115.578 1505.82,114.461L1466.65,64.053L1466.65,112.882C1466.65,115.057 1465.58,116.136 1463.43,116.136C1461.27,116.136 1460.2,115.057 1460.2,112.886L1460.2,54.698C1460.2,52.503 1461.3,51.403 1463.49,51.403C1464.5,51.403 1465.45,51.982 1466.34,53.14L1505.52,103.494L1505.52,54.657C1505.52,52.486 1506.59,51.403 1508.73,51.403C1510.9,51.403 1511.98,52.486 1511.98,54.653L1511.98,112.84Z" style="fill:rgb(247,147,29);fill-rule:nonzero;"/>
        <path d="M1578,96.728C1578,102.069 1576.1,106.64 1572.31,110.44C1568.5,114.24 1563.93,116.136 1558.6,116.136C1555.21,116.136 1551.97,115.265 1548.88,113.511C1545.71,111.732 1543.33,109.369 1541.76,106.428C1541.43,105.811 1541.27,105.244 1541.27,104.74C1541.27,103.848 1541.62,103.094 1542.32,102.469C1543.02,101.848 1543.81,101.536 1544.7,101.536C1545.62,101.536 1546.51,102.082 1547.37,103.182C1547.7,103.686 1548.22,104.411 1548.92,105.365C1551.42,108.244 1554.64,109.686 1558.6,109.686C1562.15,109.686 1565.2,108.415 1567.74,105.878C1570.28,103.336 1571.55,100.286 1571.55,96.728C1571.55,93.165 1570.28,90.111 1567.74,87.578C1565.2,85.04 1562.15,83.773 1558.6,83.773C1554.13,83.773 1550.33,82.186 1547.17,79.019C1544.01,75.857 1542.43,72.044 1542.43,67.586C1542.43,63.128 1544.01,59.315 1547.17,56.153C1550.33,52.986 1554.13,51.403 1558.6,51.403C1561.41,51.403 1564.12,52.132 1566.72,53.59C1569.31,55.053 1571.27,57.003 1572.57,59.444C1572.89,60.069 1573.06,60.653 1573.06,61.186C1573.06,62.053 1572.72,62.794 1572.04,63.419C1571.35,64.048 1570.57,64.357 1569.68,64.357C1568.96,64.357 1567.61,63.273 1565.62,61.107C1563.64,58.94 1561.29,57.857 1558.6,57.857C1555.92,57.857 1553.63,58.811 1551.73,60.715C1549.84,62.619 1548.88,64.911 1548.88,67.586C1548.88,70.265 1549.84,72.557 1551.73,74.461C1553.63,76.365 1555.92,77.311 1558.6,77.311C1563.93,77.311 1568.5,79.215 1572.31,83.015C1576.1,86.815 1578,91.382 1578,96.728Z" style="fill:rgb(247,147,29);fill-rule:nonzero;"/>
        <path d="M1681.94,29.694C1684.73,28.586 1696.63,26.153 1702.83,26.84C1709.01,27.511 1709.6,29.798 1710.56,29.382C1711.51,28.969 1721.75,10.59 1721.75,10.59C1721.75,10.59 1723.61,6.673 1725.18,7.598C1726.72,8.528 1726.27,31.348 1726.27,31.348L1733.48,44.873L1723.55,57.515L1710.94,67.448C1710.94,67.448 1697.54,73.34 1689.28,73.761C1681.03,74.178 1678.59,74.74 1673.04,73.761C1667.48,72.778 1661.58,68.865 1659.48,67.415C1657.37,65.961 1648.71,57.407 1647.8,55.698C1646.89,54.003 1644.75,49.315 1646.89,47.586C1650.39,44.744 1654.73,45.136 1657.15,45.04C1659.58,44.932 1665.12,38.373 1664.94,35.861C1664.76,33.348 1665.16,18.894 1664.22,11.644C1663.73,7.89 1671.99,18.803 1671.99,18.803" style="fill:rgb(247,147,29);fill-rule:nonzero;"/>
        <path d="M1729.61,42.748C1729.61,42.748 1771.59,37.515 1781.38,38.548C1790.7,39.553 1810.49,44.24 1816.13,44.857C1821.76,45.478 1837.2,45.111 1839.68,44.857C1842.16,44.607 1865.38,24.24 1868.4,21.748C1872.04,18.748 1887.01,10.419 1894.49,8.928C1902.1,7.398 1919.89,4.436 1930.27,4.815C1935.2,5.011 1947.67,6.198 1952.41,13.511C1953.36,14.982 1955.6,26.044 1949.23,30.094C1942.99,34.057 1914.39,42.911 1908.61,44.532C1902.85,46.153 1884.96,48.478 1875.26,49.953C1865.53,51.423 1853.6,58.061 1853.6,58.061C1853.6,58.061 1850.62,64.719 1849.98,67.103C1849.36,69.482 1849.2,82.519 1848.18,88.761C1847.2,94.994 1845.89,99.307 1840.65,99.344C1835.41,99.382 1832.55,96.907 1831.94,92.365C1831.32,87.836 1830.29,77.923 1830.29,77.923L1822.17,78.848C1822.17,78.848 1821.45,89.398 1820.45,92.269C1819.43,95.14 1819.85,97.923 1816.84,99.49C1813.8,101.057 1806.6,100.961 1806.01,95.886C1805.42,90.798 1804.89,77.923 1804.89,77.923C1804.89,77.923 1800.54,76.015 1792.26,78.832C1773.18,84.415 1751.05,81.886 1745.36,81.54C1739.66,81.194 1741.71,87.215 1741.71,88.965C1741.71,90.707 1743.03,97.582 1741.5,100.165C1739.97,102.765 1732.17,103.59 1729.84,101.328C1727.51,99.09 1726.25,82.198 1726.41,81.54C1726.57,80.869 1719.32,82.415 1719.1,81.944C1718.88,81.528 1716.11,91.436 1716.11,91.436C1716.11,91.436 1714.82,97.203 1712.9,100.619C1710.13,103.49 1701.98,103.036 1700.5,100.073C1699.11,97.29 1701.83,87.565 1702.15,82.798C1702.49,77.994 1705.27,67.815 1705.27,67.815L1729.73,44.494" style="fill:rgb(247,147,29);fill-rule:nonzero;"/>
        <path d="M1918.05,14.24L1918.05,32.482C1918.05,32.482 1917.18,41.723 1923.2,38.565C1929.21,35.403 1936.67,33.832 1943.78,31.082C1950.9,28.328 1952.09,22.373 1951.93,17.678C1951.79,12.986 1946.1,8.728 1940.95,8.044C1935.81,7.357 1929.56,7.478 1924.83,7.223C1922.2,7.086 1919.52,6.061 1918.05,7.223C1916.58,8.394 1918.05,14.24 1918.05,14.24Z" style="fill:white;fill-rule:nonzero;"/>
    </g>
</svg>
